<svg xmlns="http://www.w3.org/2000/svg" width="8.623" height="15" viewBox="0 0 8.623 15"><g transform="translate(-128.45 -127.698)"><path d="M133.146,151.706h-.775v2.115c0,.7,0,1.4,0,2.1a.714.714,0,0,1-.544.7.705.705,0,0,1-.81-.373.9.9,0,0,1-.082-.368c-.007-.837,0-1.673,0-2.51q0-3.055,0-6.111a.177.177,0,0,0-.026-.1.782.782,0,0,0-.042.082q-.284.767-.567,1.535c-.17.46-.338.921-.512,1.379a.667.667,0,0,1-.811.409.679.679,0,0,1-.514-.762.663.663,0,0,1,.035-.134c.49-1.324.988-2.644,1.465-3.972a.793.793,0,0,1,.8-.572c.61-.017,1.22-.008,1.829-.01.4,0,.81-.007,1.214,0,.374,0,.75,0,1.122.033a.7.7,0,0,1,.63.505c.363,1,.739,2,1.108,3,.131.355.266.709.385,1.068a.659.659,0,0,1-.422.82.672.672,0,0,1-.864-.355c-.094-.228-.175-.462-.261-.694l-.623-1.686q-.12-.325-.241-.649l-.037,0v6.157q0,1.272,0,2.543a.72.72,0,0,1-.627.767.709.709,0,0,1-.811-.693c-.006-.5,0-1.007,0-1.511q0-1.324,0-2.649C133.152,151.759,133.149,151.74,133.146,151.706Z" transform="translate(0 -13.94)"/><path d="M143.707,130.865a1.583,1.583,0,1,1,1.6-1.542A1.589,1.589,0,0,1,143.707,130.865Z" transform="translate(-10.96)"/></g></svg>