<svg xmlns="http://www.w3.org/2000/svg" width="15.002" height="15" viewBox="0 0 15.002 15"><defs><style>.a{fill:#111;}</style></defs><path class="a" d="M65.782,133.742a.244.244,0,0,0,.26-.264c.006-.177,0-.354,0-.531s.007-.354,0-.531a.264.264,0,0,0-.262-.273.256.256,0,0,0-.276.257c-.014.366-.014.733,0,1.1A.244.244,0,0,0,65.782,133.742Z" transform="translate(-58.273 -131.064)"/><path class="a" d="M35.548,163.9c.195-.012.286-.109.286-.278s-.092-.268-.29-.274q-.509-.016-1.019,0a.3.3,0,0,0-.3.276.3.3,0,0,0,.307.27c.163.01.327,0,.49,0v0C35.2,163.9,35.373,163.911,35.548,163.9Z" transform="translate(-33.155 -156.127)"/><path class="a" d="M79.65,138.211a1.748,1.748,0,0,0,.443-.779c-.07-.07-.132-.178-.221-.207a.291.291,0,0,0-.262.072,3.125,3.125,0,0,0-.358.616.266.266,0,0,0,.4.3Z" transform="translate(-69.321 -135.141)"/><path class="a" d="M40.038,177.129a3.117,3.117,0,0,0-.616.359.29.29,0,0,0-.07.262c.03.088.138.149.178.188a1.5,1.5,0,0,0,.81-.41.374.374,0,0,0-.017-.305A.315.315,0,0,0,40.038,177.129Z" transform="translate(-37.268 -167.196)"/><path class="a" d="M50.719,138.042a.686.686,0,0,0,.189.146c.242-.012.378-.2.3-.379a3.6,3.6,0,0,0-.3-.525c-.119-.178-.242-.208-.379-.124a.273.273,0,0,0-.1.393A3.444,3.444,0,0,0,50.719,138.042Z" transform="translate(-46.143 -135.06)"/><path class="a" d="M39.617,147.964c-.108.1-.217.158-.252.246a.285.285,0,0,0,.06.263,3.417,3.417,0,0,0,.648.377c.066.028.217-.053.276-.127.047-.059.052-.234.007-.268C40.13,148.281,39.883,148.137,39.617,147.964Z" transform="translate(-37.276 -143.774)"/><path class="a" d="M51.062,187.024a.2.2,0,0,0-.3.053,3.723,3.723,0,0,0-.367.613.265.265,0,0,0,.288.361c.028-.015.105-.028.134-.073a5.17,5.17,0,0,0,.391-.683C51.233,187.235,51.136,187.091,51.062,187.024Z" transform="translate(-46.127 -175.112)"/><path class="a" d="M36.343,126.663a7.5,7.5,0,1,0,7.451,7.541A7.487,7.487,0,0,0,36.343,126.663Zm-.079,14.443a6.942,6.942,0,1,1,6.971-6.949A6.922,6.922,0,0,1,36.263,141.107Z" transform="translate(-28.792 -126.663)"/><path class="a" d="M92.771,163.386a10.46,10.46,0,0,0-1.138,0,.255.255,0,0,0-.229.3.243.243,0,0,0,.255.232c.177.008.354,0,.532,0v0c.177,0,.355,0,.532,0,.157,0,.274-.075.286-.243A.255.255,0,0,0,92.771,163.386Z" transform="translate(-79.087 -156.15)"/><path class="a" d="M66.051,189.575a.269.269,0,0,0-.536-.053,10.646,10.646,0,0,0,0,1.137.254.254,0,0,0,.3.232.242.242,0,0,0,.234-.253c.008-.177,0-.354,0-.531h0C66.052,189.93,66.055,189.752,66.051,189.575Z" transform="translate(-58.28 -176.969)"/><path class="a" d="M89.419,177.1c-.065-.028-.207.057-.277.127a.2.2,0,0,0,.021.3,3.646,3.646,0,0,0,.688.379c.162.063.305-.076.31-.273-.019-.038-.035-.128-.088-.163A4.316,4.316,0,0,0,89.419,177.1Z" transform="translate(-77.221 -167.171)"/><path class="a" d="M89.454,149.138a1.447,1.447,0,0,0,.833-.482.341.341,0,0,0-.054-.27.3.3,0,0,0-.265-.073,3.789,3.789,0,0,0-.64.389.3.3,0,0,0-.045.267C89.31,149.048,89.414,149.1,89.454,149.138Z" transform="translate(-77.374 -144.045)"/><path class="a" d="M79.576,187.178a.34.34,0,0,0-.273.022c-.066.048-.136.192-.109.25a4.152,4.152,0,0,0,.4.677.3.3,0,0,0,.271.043c.076-.028.124-.136.152-.17A1.381,1.381,0,0,0,79.576,187.178Z" transform="translate(-69.275 -175.26)"/><path class="a" d="M58.375,144.843l-3.092,3.092a.818.818,0,0,0-.666-.018l-1.949-1.949a.393.393,0,0,0-.556.556l2.012,2.012a.82.82,0,1,0,1.622.048l3.186-3.186a.393.393,0,0,0-.556-.556Z" transform="translate(-47.431 -141.175)"/></svg>