<svg xmlns="http://www.w3.org/2000/svg" viewBox="0 0 31 25.57"><defs><style>.cls-1{fill:#91beba;}</style></defs><g id="Ebene_2" data-name="Ebene 2"><g id="Ebene_1-2" data-name="Ebene 1"><path class="cls-1" d="M28.47,0H2.53A2.53,2.53,0,0,0,0,2.53V18.35a2.53,2.53,0,0,0,2.53,2.53H4v4a.72.72,0,0,0,.44.67.66.66,0,0,0,.28.05.71.71,0,0,0,.51-.21L12,20.88H28.47A2.53,2.53,0,0,0,31,18.35V2.53A2.53,2.53,0,0,0,28.47,0Zm0,19.44H11.69a.67.67,0,0,0-.48.19h0s0,0,0,0L5.45,23.11V20.16a.17.17,0,0,0,0-.07.72.72,0,0,0-.71-.65H2.53a1.09,1.09,0,0,1-1.09-1.09V2.53A1.09,1.09,0,0,1,2.53,1.44H28.47a1.09,1.09,0,0,1,1.09,1.09V18.35a1.09,1.09,0,0,1-1.09,1.09Z"/><path class="cls-1" d="M24.61,10.8H6.33a.73.73,0,0,0,0,1.45H24.61a.73.73,0,0,0,0-1.45Z"/><path class="cls-1" d="M19.6,14.93H6.33a.72.72,0,0,0,0,1.44H19.6a.72.72,0,0,0,0-1.44Z"/><path class="cls-1" d="M6.89,4.28c.05,0,0,0,0,0,.14.46.35,1.08.5,1.55H8.87l-.65.47-.57.45.49,1.53L6.9,7.37l-1.26.9.5-1.52L5,5.87H6.39C6.53,5.4,6.73,4.79,6.89,4.28Z"/><path class="cls-1" d="M11.3,4.28s0,0,0,0c.13.46.34,1.08.49,1.55h1.48l-.65.47-.57.45.49,1.53L11.3,7.37,10,8.27l.5-1.52L9.35,5.87h1.44C10.93,5.4,11.13,4.79,11.3,4.28Z"/><path class="cls-1" d="M15.7,4.28s0,0,0,0c.14.46.34,1.08.49,1.55h1.48L17,6.3l-.57.45L17,8.28,15.7,7.37l-1.26.9.5-1.52-1.19-.88h1.44C15.33,5.4,15.53,4.79,15.7,4.28Z"/><path class="cls-1" d="M20.1,4.28h0c.14.46.34,1.08.49,1.55h1.48l-.65.47-.57.45.5,1.53L20.1,7.37l-1.26.9.5-1.52-1.19-.88h1.44C19.73,5.4,19.93,4.79,20.1,4.28Z"/><path class="cls-1" d="M24.5,4.28s0,0,0,0c.14.46.35,1.08.49,1.55h1.49l-.66.47-.57.45.5,1.53L24.5,7.37l-1.26.9.51-1.52-1.2-.88H24C24.14,5.4,24.34,4.79,24.5,4.28Z"/></g></g></svg>