<svg xmlns="http://www.w3.org/2000/svg" width="99" height="89.206" viewBox="0 0 99 89.206"><defs><style>.a,.c{fill:#fff;}.a{stroke:#004972;stroke-miterlimit:10;stroke-width:1.259px;}.b{fill:#009fe0;}.d,.f{fill:#004972;}.d{font-size:8.5px;font-family:SegoeUI-Semibold, Segoe UI;font-weight:600;letter-spacing:0.02em;}.e{fill:#fb0;}.f{font-size:18px;font-family:SegoeUI-Bold, Segoe UI;font-weight:700;letter-spacing:-0.044em;}</style></defs><g transform="translate(-1210 -459.37)"><g transform="translate(1210 460)"><circle class="a" cx="43.973" cy="43.973" r="43.973" transform="translate(5.277 0)"/><g transform="translate(9.307 32.171)"><path class="b" d="M714.812,98.079a39.943,39.943,0,1,0,78.111-11.8H716.586A39.952,39.952,0,0,0,714.812,98.079Z" transform="translate(-714.812 -86.277)"/></g><circle class="c" cx="15.391" cy="15.391" r="15.391" transform="translate(33.859 28.583)"/><text class="d" transform="translate(0 7.566)"><tspan x="31.472" y="9">KUNDEN</tspan><tspan x="17.695" y="18.8">BEWERTUNGEN</tspan></text><path class="e" d="M746.056,110.265l2.387,4.837,5.338.776-3.863,3.765.912,5.316-4.774-2.51-4.774,2.51.912-5.316-3.863-3.765,5.338-.776Z" transform="translate(-697.202 -45.638)"/><path class="e" d="M754.2,106.378l5.2,1.444,4.136-3.462.232,5.389,4.571,2.864L763.28,114.5l-1.311,5.232-3.356-4.223-5.381.37,2.98-4.5Z" transform="translate(-691.942 -47.723)"/><path class="e" d="M758.654,97.377l4.82-2.422.737-5.344L768,93.447l5.31-.95-2.476,4.792,2.545,4.756-5.323-.873-3.737,3.89-.814-5.332Z" transform="translate(-690.028 -52.929)"/><path class="e" d="M737.8,106.378l-5.2,1.444-4.136-3.462-.232,5.389-4.571,2.864,5.053,1.886,1.311,5.232,3.356-4.223,5.381.37-2.98-4.5Z" transform="translate(-702.379 -47.723)"/><path class="e" d="M733.25,97.377l-4.82-2.422-.737-5.344L723.9,93.447l-5.31-.95,2.476,4.792-2.544,4.756,5.323-.873,3.737,3.89.814-5.332Z" transform="translate(-704.195 -52.929)"/></g><text class="f" transform="translate(1259 511)"><tspan x="-12" y="0">4.8</tspan></text></g></svg>