<svg xmlns="http://www.w3.org/2000/svg" width="94.333" height="94.333" viewBox="0 0 94.333 94.333"><defs><style>.a{fill:#004972;}.b{fill:none;}.c{fill:#fff;}.d{fill:#009fe0;}.e{fill:#fb0;}</style></defs><g transform="translate(-1026.667 533.547)"><path class="a" d="M1121-486.38a47.167,47.167,0,0,0-47.167-47.167,47.166,47.166,0,0,0-47.167,47.167,47.076,47.076,0,0,0,2.522,15.214h89.288A47.06,47.06,0,0,0,1121-486.38Z"/><path class="b" d="M1082.506-394.077A46.976,46.976,0,0,0,1113.838-406h-62.665A46.978,46.978,0,0,0,1082.506-394.077Z" transform="translate(-8.672 -45.136)"/><circle class="c" cx="30.024" cy="30.024" r="30.024" transform="translate(1043.87 -515.997)"/><g transform="translate(1031.63 -528.602)"><g transform="translate(0)"><path class="c" d="M1038.208-455.322l-.026-.253a.539.539,0,0,0-.324-.478l-2.912-1.254a.721.721,0,0,1-.335-.257.891.891,0,0,1-.122-.388l-.141-1.378,3.614,1.674a1.626,1.626,0,0,1,.329.193,1.48,1.48,0,0,1,.228.218,1.129,1.129,0,0,1,.189-.348,1.421,1.421,0,0,1,.351-.308l3.7-2.464.145,1.415a1.051,1.051,0,0,1,0,.235.545.545,0,0,1-.052.173.528.528,0,0,1-.1.134,1.084,1.084,0,0,1-.143.114l-2.774,1.848a.514.514,0,0,0-.207.236.765.765,0,0,0-.03.356l.039.384,3.586-.368.163,1.583-8.428.866-.163-1.584Z" transform="translate(-1034.348 502.703)"/><path class="c" d="M1041.63-468.777a1.222,1.222,0,0,0-.065-.583,1.192,1.192,0,0,0-.324-.466,1.793,1.793,0,0,0-.562-.333,3.163,3.163,0,0,0-.784-.183l-4.985-.575.182-1.582,4.986.575a4.747,4.747,0,0,1,1.4.368,3.369,3.369,0,0,1,1.048.711,2.667,2.667,0,0,1,.622,1.005,2.824,2.824,0,0,1,.119,1.251,2.825,2.825,0,0,1-.4,1.2,2.643,2.643,0,0,1-.834.838,3.318,3.318,0,0,1-1.182.452,4.791,4.791,0,0,1-1.444.037l-4.985-.574.182-1.582,4.98.574a3.187,3.187,0,0,0,.8,0,1.847,1.847,0,0,0,.626-.2,1.182,1.182,0,0,0,.424-.381A1.22,1.22,0,0,0,1041.63-468.777Z" transform="translate(-1034.373 506.998)"/><path class="c" d="M1036.965-481.676a.394.394,0,0,1,.083-.106.46.46,0,0,1,.12-.073,1.525,1.525,0,0,1,.188-.059l5.877-1.409c-.159-.041-.311-.084-.457-.129s-.284-.089-.412-.133l-4.235-1.473.461-1.326,8,2.782-.273.783a.643.643,0,0,1-.168.271.727.727,0,0,1-.322.147L1040-481c.142.039.281.079.417.12s.262.081.379.122l4.289,1.491-.461,1.326-8-2.782.276-.792A1.051,1.051,0,0,1,1036.965-481.676Z" transform="translate(-1035.152 511.911)"/><path class="c" d="M1048.934-496.428a5.393,5.393,0,0,1,1.3,1.118,4.16,4.16,0,0,1,.753,1.326,3.279,3.279,0,0,1,.151,1.421,3.3,3.3,0,0,1-.505,1.4l-1.417,2.258-7.178-4.5,1.416-2.259a3.3,3.3,0,0,1,1.046-1.065,3.332,3.332,0,0,1,1.346-.482,4.087,4.087,0,0,1,1.519.1A5.366,5.366,0,0,1,1048.934-496.428Zm-.867,1.38a4.5,4.5,0,0,0-1.031-.49,2.64,2.64,0,0,0-.928-.134,1.7,1.7,0,0,0-.78.226,1.716,1.716,0,0,0-.592.589l-.566.9,4.616,2.895.565-.9a1.725,1.725,0,0,0,.273-.791,1.706,1.706,0,0,0-.136-.8,2.649,2.649,0,0,0-.525-.777A4.533,4.533,0,0,0,1048.068-495.048Z" transform="translate(-1037.07 515.753)"/><path class="c" d="M1053.188-507.969l1.1,1.042-1.94,2.042,1.434,1.362,1.485-1.564,1.054,1-1.485,1.564,1.463,1.389,1.939-2.042,1.1,1.041-3.043,3.2-6.143-5.835Z" transform="translate(-1039.939 519.55)"/><path class="c" d="M1059.318-513.681a.376.376,0,0,1,.129-.037.408.408,0,0,1,.14.012,1.456,1.456,0,0,1,.188.061l5.588,2.3c-.1-.126-.2-.25-.294-.372s-.179-.238-.257-.35l-2.571-3.672,1.15-.805,4.859,6.94-.679.476a.644.644,0,0,1-.295.121.719.719,0,0,1-.347-.07l-5.546-2.278q.138.173.267.342c.087.112.165.219.237.32l2.6,3.72-1.149.805-4.861-6.941.687-.481A1.123,1.123,0,0,1,1059.318-513.681Z" transform="translate(-1042.888 522.585)"/><path class="c" d="M1074.084-511.976l-3.289-7.808,2.327-.98a3.95,3.95,0,0,1,1.179-.32,2.139,2.139,0,0,1,.928.107,1.737,1.737,0,0,1,.7.487,2.918,2.918,0,0,1,.5.817,2.269,2.269,0,0,1,.153.532,1.749,1.749,0,0,1,0,.539,1.734,1.734,0,0,1-.171.529,2.162,2.162,0,0,1-.363.509,1.823,1.823,0,0,1,1.181.219,1.967,1.967,0,0,1,.754.954,2.9,2.9,0,0,1,.234.993,2.331,2.331,0,0,1-.143.941,2.278,2.278,0,0,1-.535.812,2.9,2.9,0,0,1-.936.605Zm-.438-5.141.764-.322a2.23,2.23,0,0,0,.421-.227.877.877,0,0,0,.269-.29.73.73,0,0,0,.085-.383,1.463,1.463,0,0,0-.127-.5,1.773,1.773,0,0,0-.251-.44.741.741,0,0,0-.3-.224.724.724,0,0,0-.365-.036,1.772,1.772,0,0,0-.447.132l-.861.362Zm.51,1.211.82,1.945,1.033-.435a1.172,1.172,0,0,0,.437-.291.834.834,0,0,0,.189-.357.939.939,0,0,0,.006-.387,1.989,1.989,0,0,0-.117-.386,1.633,1.633,0,0,0-.208-.367.719.719,0,0,0-.279-.224.79.79,0,0,0-.369-.059,1.522,1.522,0,0,0-.488.13Z" transform="translate(-1047.246 524.195)"/><path class="c" d="M1087.176-524.992l.317,1.478-2.754.589.412,1.933,2.111-.45.3,1.422-2.11.451.421,1.973,2.756-.589.315,1.478-4.321.923-1.771-8.285Z" transform="translate(-1051.514 525.574)"/><path class="c" d="M1094-525.893l1.337.045a.523.523,0,0,1,.343.128.545.545,0,0,1,.17.314l.795,4.449c.026.144.052.3.078.462s.043.335.054.514c.037-.181.078-.351.12-.511s.085-.31.124-.452l1.259-4.38a.61.61,0,0,1,.191-.287.473.473,0,0,1,.34-.12l.471.016a.508.508,0,0,1,.337.125.585.585,0,0,1,.176.317l.954,4.454c.03.136.061.282.094.437s.059.319.082.494c.031-.17.062-.331.094-.486s.064-.3.1-.433l1.089-4.386a.554.554,0,0,1,.188-.29.489.489,0,0,1,.343-.116l1.253.042-2.4,8.4-1.44-.048-1.115-5.291c-.019-.082-.039-.172-.06-.27s-.039-.2-.059-.31c-.025.108-.051.21-.078.306s-.053.184-.078.264l-1.484,5.2-1.44-.048Z" transform="translate(-1055.458 525.893)"/><path class="c" d="M1117.155-522.909l-.41,1.456-2.711-.761-.534,1.9,2.077.583-.393,1.4-2.077-.583-.545,1.943,2.712.761-.409,1.456-4.253-1.194,2.289-8.157Z" transform="translate(-1061.336 525.26)"/><path class="c" d="M1122.139-515.1l-1.4,2.8-1.425-.711,3.786-7.58,2,1a3.781,3.781,0,0,1,1.051.737,2.263,2.263,0,0,1,.532.854,2.026,2.026,0,0,1,.076.928,3.176,3.176,0,0,1-.311.963,3.308,3.308,0,0,1-.428.657,2.643,2.643,0,0,1-.541.487,2.389,2.389,0,0,1-.636.3,2.2,2.2,0,0,1-.707.095,1.553,1.553,0,0,1,.159.352,1.472,1.472,0,0,1,.057.426l-.01,3.29-1.29-.643a.592.592,0,0,1-.348-.59l.078-2.71a.561.561,0,0,0-.054-.288.5.5,0,0,0-.224-.189Zm.6-1.212.573.286a1.36,1.36,0,0,0,.541.156.993.993,0,0,0,.461-.085,1.148,1.148,0,0,0,.377-.282,2,2,0,0,0,.292-.436,1.225,1.225,0,0,0,.125-.912,1.193,1.193,0,0,0-.675-.688l-.574-.286Z" transform="translate(-1064.416 524.014)"/><path class="c" d="M1137.984-511.7l-.942,1.241-1.538-1.168-4.181,5.506-1.268-.963,4.18-5.506-1.537-1.168.942-1.241Z" transform="translate(-1068.217 522.036)"/><path class="c" d="M1139.435-500.153a1.221,1.221,0,0,0,.475.344,1.2,1.2,0,0,0,.563.074,1.777,1.777,0,0,0,.624-.193,3.168,3.168,0,0,0,.663-.458l3.773-3.308,1.05,1.2-3.773,3.308a4.763,4.763,0,0,1-1.212.789,3.38,3.38,0,0,1-1.23.3,2.663,2.663,0,0,1-1.164-.215,2.8,2.8,0,0,1-1.007-.751,2.829,2.829,0,0,1-.617-1.1,2.669,2.669,0,0,1-.06-1.18,3.331,3.331,0,0,1,.458-1.179,4.816,4.816,0,0,1,.942-1.1l3.774-3.308,1.051,1.2-3.77,3.3a3.158,3.158,0,0,0-.541.6,1.854,1.854,0,0,0-.275.594,1.191,1.191,0,0,0,0,.57A1.224,1.224,0,0,0,1139.435-500.153Z" transform="translate(-1070.844 519.183)"/><path class="c" d="M1150.985-494.862a.387.387,0,0,1,.023.132.417.417,0,0,1-.026.138,1.578,1.578,0,0,1-.082.178l-2.907,5.3c.136-.089.27-.172.4-.251s.256-.151.375-.215l3.936-2.146.672,1.232-7.439,4.055-.4-.728a.633.633,0,0,1-.088-.306.726.726,0,0,1,.107-.337l2.884-5.257c-.125.079-.248.155-.37.228s-.236.14-.345.2l-3.988,2.174-.671-1.232,7.439-4.055.4.736A1.119,1.119,0,0,1,1150.985-494.862Z" transform="translate(-1072.823 515.228)"/><path class="c" d="M1151.042-477.254a2.225,2.225,0,0,0,.227.543,2.485,2.485,0,0,0,.311.411l1.235-.354-.186-.653a.294.294,0,0,1,.029-.254.374.374,0,0,1,.217-.15l1.04-.3.671,2.345-3.437.985a3.549,3.549,0,0,1-.546-.414,3.18,3.18,0,0,1-.438-.507,3.786,3.786,0,0,1-.346-.616,5.591,5.591,0,0,1-.266-.739,3.012,3.012,0,0,1-.068-1.431,3.417,3.417,0,0,1,.566-1.316,4.364,4.364,0,0,1,1.116-1.084,5.414,5.414,0,0,1,1.584-.731,5.692,5.692,0,0,1,1.745-.235,4.1,4.1,0,0,1,1.518.323,3.3,3.3,0,0,1,1.175.853,3.444,3.444,0,0,1,.721,1.354,3.619,3.619,0,0,1,.138.8,3.45,3.45,0,0,1-.037.734,3.01,3.01,0,0,1-.187.658,3.238,3.238,0,0,1-.307.578l-.959-.2a.591.591,0,0,1-.228-.1.326.326,0,0,1-.122-.173.477.477,0,0,1,.032-.313c.055-.147.1-.282.134-.408a1.923,1.923,0,0,0,.065-.374,1.873,1.873,0,0,0-.011-.379,3.079,3.079,0,0,0-.092-.425,1.662,1.662,0,0,0-.41-.72,1.786,1.786,0,0,0-.7-.435,2.68,2.68,0,0,0-.926-.139,4.138,4.138,0,0,0-1.1.174,4.324,4.324,0,0,0-1.11.474,2.76,2.76,0,0,0-.735.645,1.827,1.827,0,0,0-.355.758A1.71,1.71,0,0,0,1151.042-477.254Z" transform="translate(-1075.074 510.273)"/><path class="c" d="M1159.987-464.793l-1.507.125-.232-2.807-1.971.163.178,2.15-1.448.12-.178-2.15-2.011.167.233,2.807-1.507.125-.365-4.4,8.443-.7Z" transform="translate(-1075.692 505.829)"/><path class="c" d="M1159.7-457.042a.344.344,0,0,1-.059.121.41.41,0,0,1-.1.1,1.344,1.344,0,0,1-.169.1l-5.438,2.635q.244.01.474.028c.152.012.3.026.432.041l4.451.531-.165,1.394-8.413-1,.1-.823a.643.643,0,0,1,.105-.3.719.719,0,0,1,.284-.213l5.4-2.615q-.222-.013-.433-.028c-.141-.011-.273-.023-.4-.038l-4.509-.538.165-1.394,8.413,1-.1.833A1.112,1.112,0,0,1,1159.7-457.042Z" transform="translate(-1075.525 502.238)"/></g></g><path class="d" d="M1119.859-437h-89.288a47.208,47.208,0,0,0,13.311,20.03h62.665A47.2,47.2,0,0,0,1119.859-437Z" transform="translate(-1.382 -34.166)"/><path class="e" d="M1060.591-425.95l-3.521-.512-1.574-3.19-1.575,3.19-3.521.511,2.547,2.484-.6,3.506,3.149-1.655,3.149,1.656-.6-3.506Z" transform="translate(-8.399 -36.766)"/><path class="e" d="M1081.5-425.95l-3.521-.512-1.574-3.19-1.575,3.19-3.521.511,2.547,2.484-.6,3.506,3.149-1.655,3.149,1.656-.6-3.506Z" transform="translate(-15.797 -36.766)"/><path class="e" d="M1102.4-425.95l-3.521-.512-1.574-3.19-1.575,3.19-3.521.511,2.547,2.484-.6,3.506,3.149-1.655,3.149,1.656-.6-3.506Z" transform="translate(-23.195 -36.766)"/><path class="e" d="M1123.306-425.95l-3.521-.512-1.574-3.19-1.575,3.19-3.521.511,2.547,2.484-.6,3.506,3.149-1.655,3.149,1.656-.6-3.506Z" transform="translate(-30.593 -36.766)"/><path class="e" d="M1144.211-425.95l-3.521-.512-1.574-3.19-1.575,3.19-3.521.511,2.547,2.484-.6,3.506,3.149-1.655,3.149,1.656-.6-3.506Z" transform="translate(-37.991 -36.766)"/><g transform="translate(1056.082 -504.764)"><path class="d" d="M1106.381-472.512a.744.744,0,0,1-.465.244h-.067a.7.7,0,0,1-.465-.155l-15.33-12.783-15.33,12.783a.754.754,0,0,1-.532.155.741.741,0,0,1-.465-.244l-1.373-1.64a.724.724,0,0,1,.089-1l15.928-13.271a2.729,2.729,0,0,1,3.368,0l5.4,4.52v-4.321a.7.7,0,0,1,.709-.709h4.253a.7.7,0,0,1,.709.709v9.039l4.852,4.032a.723.723,0,0,1,.088,1Zm-3.567,10.523a1.427,1.427,0,0,1-1.418,1.418h-8.507v-8.507h-5.672v8.507h-8.507a1.427,1.427,0,0,1-1.418-1.418v-10.634c0-.044.023-.088.023-.132l12.738-10.5,12.738,10.5a.274.274,0,0,1,.023.132Z" transform="translate(-1072.193 489)"/></g></g></svg>