<svg xmlns="http://www.w3.org/2000/svg" width="518" height="46" viewBox="0 0 518 46"><defs><style>.a{fill:#939393;}.b{fill:#fff;}.c{fill:#f3f3f3;}.d,.e{font-size:14px;}.d,.g{font-family:SegoeUI-Semibold, Segoe UI;font-weight:600;}.e{font-family:SegoeUI-Semilight, Segoe UI;font-weight:300;}.f{text-decoration:underline;}</style></defs><g transform="translate(-1111 -188)"><rect class="a" width="46" height="46" transform="translate(1111 188)"/><g transform="translate(1111.8 188.597)"><g transform="translate(7.2 6.403)"><path class="b" d="M34.931,15.423H23.445a.482.482,0,0,0-.492.492v6.4s0,.328.492.328H34.767a1.471,1.471,0,0,0,1.477-1.477v-4.43A1.412,1.412,0,0,0,34.931,15.423ZM20.163,24.284H10.318a1.471,1.471,0,0,0-1.477,1.477V36.427A1.471,1.471,0,0,0,10.318,37.9h10.01a.321.321,0,0,0,.328-.328V24.94C20.656,24.776,20.656,24.284,20.163,24.284Zm13.127,0H23.445c-.656,0-.492.656-.492.656V37.411a.321.321,0,0,0,.328.328h10.01a1.471,1.471,0,0,0,1.477-1.477V25.6A1.447,1.447,0,0,0,33.291,24.284ZM20.163,15.423H8.677A1.471,1.471,0,0,0,7.2,16.9v4.43a1.471,1.471,0,0,0,1.477,1.477H20.163c.492,0,.492-.328.492-.328v-6.4C20.656,15.915,20.656,15.423,20.163,15.423ZM30.5,11.977c1.969-1.313,1.969-3.282,0-4.759a3.439,3.439,0,0,0-3.282-.656c-2.3.82-3.61,2.625-4.595,4.759-.82,1.969-.492,2.461,2.133,2.461C26.4,13.618,28.7,13.454,30.5,11.977ZM27.383,8.7a1.8,1.8,0,0,1,1.313,0,1.735,1.735,0,0,1,1.149.985c.164.328-.328.985-.656,1.149a13.472,13.472,0,0,1-6.235,2.133A6.416,6.416,0,0,1,27.383,8.7ZM16.553,6.726a3.358,3.358,0,0,0-3.282.656c-1.805,1.477-1.805,3.446,0,4.759s4.1,1.477,5.907,1.641c2.625,0,2.954-.492,2.133-2.461A7.757,7.757,0,0,0,16.553,6.726Zm-1.805,4.1c-.328-.328-.82-.985-.656-1.149A1.735,1.735,0,0,1,15.24,8.7a1.8,1.8,0,0,1,1.313,0,6.757,6.757,0,0,1,4.43,4.266A12.855,12.855,0,0,1,14.748,10.828Z" transform="translate(-7.2 -6.403)"/></g></g><rect class="c" width="472" height="46" transform="translate(1157 188)"/><text class="d" transform="translate(1233 208)"><tspan x="-68.137" y="0">Dein Geschenkeladen</tspan></text><text class="e" transform="translate(1393 225)"><tspan class="f" x="-229.78" y="0">Trusted Shops Bewertungen für geschenke.io</tspan><tspan y="0">: </tspan><tspan class="g" y="0">4.85 / 5.00</tspan><tspan y="0" xml:space="preserve"> (135 Bewertungen)</tspan></text></g></svg>