<svg xmlns="http://www.w3.org/2000/svg" width="16.523" height="15" viewBox="0 0 16.523 15"><path d="M43.023,72.5v.139q0,1.874,0,3.748a1.743,1.743,0,0,1-1.765,1.775H34.1c-.455,0-.909,0-1.364,0a1.7,1.7,0,0,1-1.662-1.248A2.041,2.041,0,0,1,31,76.4c-.006-1.259,0-2.519,0-3.778,0-.037,0-.074,0-.124a1.416,1.416,0,0,0-1.059.247,1.224,1.224,0,0,1-.627.311.452.452,0,0,1-.574-.426c-.015-.173-.006-1.137.017-1.309a.308.308,0,0,1,.3-.281c.92-.023.72.731,1.522.75,4.73,0,7.7,0,12.433,0,1.44-.019.806-.773,1.773-.773a.853.853,0,0,1,.232.045.274.274,0,0,1,.209.241c.017.185.039,1.159.025,1.343a.452.452,0,0,1-.578.41,1.134,1.134,0,0,1-.593-.29A1.369,1.369,0,0,0,43.023,72.5Z" transform="translate(-28.732 -63.164)"/><path d="M39.207,60.254c.021-.094.036-.18.06-.263a1.733,1.733,0,0,1,1.68-1.232q1.753,0,3.506,0h.135c-.07-.273-.133-.532-.2-.789-.1-.391.083-.626.505-.627.2,0,.4,0,.6,0a.563.563,0,0,1,.387.148.347.347,0,0,1,.119.383c-.079.287-.15.576-.228.879.051,0,.094.007.137.007,1.21,0,2.421-.007,3.631,0a1.68,1.68,0,0,1,1.589.99,3.707,3.707,0,0,1,.166.5Z" transform="translate(-36.977 -52.555)"/><path d="M62.453,35.342l.883.615a.737.737,0,0,0,.022.731c.128.312.266.622.366.944a1.176,1.176,0,0,1-.35,1.267c-.161.153-.342.284-.529.436l-.57-.925.1-.072a.536.536,0,0,0,.226-.657,4.642,4.642,0,0,0-.212-.526,2.268,2.268,0,0,1-.25-.86A1.515,1.515,0,0,1,62.453,35.342Z" transform="translate(-54.884 -35.342)"/><path d="M76,39.328l-.565-.919.1-.077a.547.547,0,0,0,.2-.666c-.076-.216-.176-.424-.264-.636a1.857,1.857,0,0,1-.171-.937,1.623,1.623,0,0,1,.31-.752l.882.614a.811.811,0,0,0,.026.8c.1.242.218.48.309.727a1.232,1.232,0,0,1-.372,1.491C76.315,39.1,76.159,39.2,76,39.328Z" transform="translate(-65.184 -35.34)"/><path d="M48.962,39.328l-.594-.914c.03-.023.053-.042.078-.06a.569.569,0,0,0,.229-.761c-.085-.221-.188-.434-.277-.654a1.534,1.534,0,0,1,.115-1.5c.018-.028.038-.054.064-.091l.853.616a.778.778,0,0,0,.019.71c.1.251.217.5.308.751a1.307,1.307,0,0,1-.453,1.652C49.2,39.162,49.083,39.239,48.962,39.328Z" transform="translate(-44.017 -35.344)"/></svg>