<svg xmlns="http://www.w3.org/2000/svg" width="15.138" height="15" viewBox="0 0 15.138 15"><path d="M111.926,35.3c0-.309.185-.435.475-.327a10.47,10.47,0,0,1,1.9.967,28.685,28.685,0,0,1,3.555,2.7c1.34,1.163,2.539,2.47,3.808,3.705.089.086.081.119-.032.177a1.723,1.723,0,0,0-.407.283c-.454.44-.9.893-1.345,1.339a1.1,1.1,0,0,0-.352.71c0,.034,0,.079-.023.1a3.857,3.857,0,0,1-.585.522.508.508,0,0,1-.628-.141c-.171-.162-.34-.328-.5-.5-.686-.736-1.385-1.46-2.047-2.217a19.206,19.206,0,0,1-2.973-4.343,8.622,8.622,0,0,1-.844-2.882C111.929,35.359,111.927,35.325,111.926,35.3Z" transform="translate(-111.926 -34.94)"/><path d="M155.245,79.418a1.642,1.642,0,0,1-1.691-1.662,1.162,1.162,0,0,0-.375-.911c-.448-.43-.884-.873-1.319-1.316a1.117,1.117,0,0,0-.85-.351c-.126,0-.254.006-.38,0a.542.542,0,0,1-.508-.35.513.513,0,0,1,.12-.6q.713-.715,1.428-1.428a.542.542,0,0,1,.788-.017c.021.019.042.04.062.06q1.922,1.922,3.842,3.846a1.781,1.781,0,0,1,.551,1.3,1.371,1.371,0,0,1-1.037,1.361,2.292,2.292,0,0,1-.337.07A2.437,2.437,0,0,1,155.245,79.418Zm-.587-3.3a.544.544,0,1,0-.546.535A.559.559,0,0,0,154.658,76.115ZM153,74.454a.544.544,0,1,0-.542.539A.559.559,0,0,0,153,74.454Z" transform="translate(-141.775 -64.422)"/></svg>