<svg xmlns="http://www.w3.org/2000/svg" width="50" height="36.446" viewBox="0 0 50 36.446"><defs><style>.a{fill:#333a46;}.b{fill:#fff;}.c{fill:#7bc0bc;}</style></defs><path class="a" d="M40.552,36.446H0L9.448,0H50Z"/><path class="b" d="M146.943,82.73H127.186a1.929,1.929,0,0,0-1.926,1.926V96.707a1.928,1.928,0,0,0,1.926,1.925h1.126v3.024a.547.547,0,0,0,.339.507.539.539,0,0,0,.21.042.551.551,0,0,0,.389-.161l5.141-3.412h12.552a1.928,1.928,0,0,0,1.926-1.925V84.656a1.929,1.929,0,0,0-1.926-1.926Zm0,14.8h-12.78a.546.546,0,0,0-.368.142h0l-.02.019-4.362,2.632V98.084a.419.419,0,0,0,0-.051.549.549,0,0,0-.546-.5h-1.681a.83.83,0,0,1-.828-.828V84.656a.829.829,0,0,1,.828-.828h19.756a.828.828,0,0,1,.828.828V96.707a.829.829,0,0,1-.828.828Z" transform="translate(-111.164 -73.078)"/><path class="c" d="M187.787,175.26H173.869a.549.549,0,1,0,0,1.1h13.918a.549.549,0,1,0,0-1.1Z" transform="translate(-155.01 -157.666)"/><path class="c" d="M184.187,210.6h-10.1a.55.55,0,0,0,0,1.1h10.1a.55.55,0,0,0,0-1.1Z" transform="translate(-155.559 -189.458)"/><path class="b" d="M169.141,119.35h0c.106.356.267.825.374,1.186h1.133c-.225.16-.363.254-.5.356s-.267.2-.437.341l.377,1.169-.946-.7-.959.687c.149-.454.267-.809.382-1.161l-.908-.667h1.1C168.865,120.208,169.017,119.742,169.141,119.35Z" transform="translate(-150.76 -107.278)"/><path class="b" d="M206.831,119.35h0c.106.356.267.825.374,1.186h1.133c-.224.16-.362.254-.5.356s-.262.2-.436.341l.377,1.171-.952-.7-.959.687.382-1.161-.9-.667h1.092C206.554,120.208,206.707,119.742,206.831,119.35Z" transform="translate(-184.651 -107.278)"/><path class="b" d="M244.483,119.35h0c.106.356.267.825.373,1.186h1.133c-.225.16-.363.254-.5.356s-.267.2-.437.341l.377,1.171-.946-.7-.954.685c.149-.454.267-.809.382-1.161l-.915-.667h1.093C244.208,120.208,244.36,119.742,244.483,119.35Z" transform="translate(-218.506 -107.278)"/><path class="b" d="M282.2,119.35h0c.106.356.267.825.373,1.186h1.133c-.224.16-.362.254-.5.356s-.267.2-.437.341l.377,1.171-.947-.7-.959.687.381-1.161-.907-.669h1.092C281.924,120.208,282.079,119.742,282.2,119.35Z" transform="translate(-252.424 -107.278)"/><path class="b" d="M319.881,119.35h0c.106.356.267.825.373,1.186h1.134c-.225.16-.363.254-.5.356s-.267.2-.437.341c.107.332.226.7.378,1.171l-.947-.7-.959.687.381-1.161-.909-.669h1.093C319.609,120.208,319.757,119.742,319.881,119.35Z" transform="translate(-286.306 -107.278)"/></svg>